:SAMPLES-PER-SECOND 30
:FULLY-SPECIFIED
:DEGREES
164
root  -38.7877 41.188 -1.62559 -125.877 -88.2231 118.841
RightUpLeg  6.9716 -9.8111 -8.6835
RightLeg  9.24904 -1.92787 1.38777
RightFoot  -6.86335 -0.072946 0.632808
RightToes  0.00048216 0.542163 -0.142577
Spine  -0.221047 2.65671 2.37367
Spine1  14.5764 5.01518 -6.7656
HEad  -34.9078 -12.1852 11.1906
LeftShoulder1  8.2975 -14.3146 -40.3007
LeftArm  -7.53966 20.6613 -27.5189
LeftForeArm  32.4237 -21.8626 -3.26679
LeftHand  -0.25398 0.0180481 5.50724
RightShoulder  2.102 5.76261 15.976
RightArm  -10.4815 49.7428 52.5062
RightForeArm  168.668 57.2394 164.384
RightHand  -4.47064 12.1479 -29.4138
LeftUpLeg  6.44404 5.09495 1.52753
LeftLeg  5.20867 12.777 -2.72738
LeftFoot  -3.93599 -0.127902 2.34342
LeftToes  1.06247e-005 4.65855e-005 -8.18501e-006
165
root  -38.6679 41.1975 -1.61507 -116.747 -88.3881 109.847
RightUpLeg  6.76362 -9.82471 -8.64918
RightLeg  9.09074 -2.24237 1.46442
RightFoot  -6.6372 -0.0730501 0.636122
RightToes  0.00048216 0.542163 -0.142577
Spine  0.447308 2.44949 2.33295
Spine1  15.2214 4.79296 -6.55476
HEad  -30.8905 -12.2575 10.4405
LeftShoulder1  8.20597 -14.1189 -40.2986
LeftArm  -7.65065 20.247 -27.7434
LeftForeArm  32.5914 -22.7585 -3.28055
LeftHand  -0.25398 0.0180481 5.50724
RightShoulder  2.24833 5.97046 17.1155
RightArm  -8.16012 47.1083 53.6637
RightForeArm  167.615 57.0745 164.389
RightHand  -4.49458 11.9692 -29.8451
LeftUpLeg  6.07348 4.97991 1.47211
LeftLeg  5.16773 12.603 -2.69028
LeftFoot  -3.69609 -0.135752 2.36539
LeftToes  1.06247e-005 4.65855e-005 -8.18501e-006
166
root  -38.5095 41.2073 -1.60348 -104.092 -88.4982 97.4433
RightUpLeg  6.32564 -9.8427 -8.59147
RightLeg  9.01744 -2.60995 1.51418
RightFoot  -6.37783 -0.0731837 0.641984
RightToes  0.00048216 0.542163 -0.142577
Spine  1.42756 2.24649 2.31861
Spine1  15.6664 4.63985 -6.55934
HEad  -26.6576 -12.4521 9.81405
LeftShoulder1  8.06718 -13.9607 -39.9468
LeftArm  -8.3429 19.8734 -28.2315
LeftForeArm  33.389 -23.7668 -3.35399
LeftHand  -0.25398 0.0180481 5.50724
RightShoulder  2.43602 6.14675 18.7538
RightArm  -6.06821 43.9578 54.5373
RightForeArm  168.004 56.9707 164.48
RightHand  -4.52275 12.155 -29.7253
LeftUpLeg  5.50053 4.86607 1.39303
LeftLeg  5.13532 12.4002 -2.68404
LeftFoot  -3.37211 -0.151017 2.45975
LeftToes  1.06247e-005 4.65855e-005 -8.18501e-006
167
root  -38.3068 41.2154 -1.59213 -89.9459 -88.4879 83.7784
RightUpLeg  5.48725 -9.89675 -8.52045
RightLeg  9.08542 -2.96782 1.55593
RightFoot  -6.09533 -0.0704179 0.605068
RightToes  0.00048216 0.542163 -0.142577
Spine  2.71479 2.11548 2.27047
Spine1  15.8007 4.53765 -6.50538
HEad  -22.4546 -12.574 9.03613
LeftShoulder1  7.97453 -13.8536 -39.7113
LeftArm  -9.29125 19.5247 -28.6611
LeftForeArm  34.3912 -24.9569 -3.53716
LeftHand  -0.25398 0.0180481 5.50724
RightShoulder  2.61266 6.30527 20.2518
RightArm  -4.35585 40.0533 55.3547
RightForeArm  168.531 56.8024 164.618
RightHand  -4.72875 12.9839 -29.6776
LeftUpLeg  4.59195 4.80101 1.29612
LeftLeg  5.12613 12.1683 -2.76884
LeftFoot  -2.96685 -0.175646 2.64337
LeftToes  1.06247e-005 4.65855e-005 -8.18501e-006
168
root  -38.0778 41.2243 -1.58292 -73.407 -88.3702 68.0147
RightUpLeg  4.3205 -9.99555 -8.41337
RightLeg  9.12163 -3.40989 1.66321
RightFoot  -5.75753 -0.0638561 0.511587
RightToes  0.00048216 0.542163 -0.142577
Spine  4.01539 1.99275 2.33938
Spine1  15.8881 4.43129 -6.42454
HEad  -18.5335 -12.6332 8.05611
LeftShoulder1  7.94681 -13.7638 -39.7856
LeftArm  -9.91087 19.071 -28.8334
LeftForeArm  35.0711 -26.2501 -3.77553
LeftHand  -0.25398 0.0180481 5.50724
RightShoulder  2.79977 6.53774 21.5818
RightArm  -2.7878 35.6048 56.1688
RightForeArm  167.723 56.484 164.727
RightHand  -4.95352 13.4608 -30.2684
LeftUpLeg  3.32614 4.7597 1.21175
LeftLeg  5.08857 11.8158 -2.92526
LeftFoot  -2.48205 -0.206675 2.86103
LeftToes  1.06247e-005 4.65855e-005 -8.18501e-006
169
root  -37.8439 41.2387 -1.5738 -54.945 -88.0906 50.576
RightUpLeg  3.01046 -10.1018 -8.2716
RightLeg  8.95894 -4.04019 1.86832
RightFoot  -5.32647 -0.0560023 0.40054
RightToes  0.00048216 0.542163 -0.142577
Spine  5.15504 1.80053 2.56445
Spine1  16.1073 4.25972 -6.37322
HEad  -14.9223 -13.0163 6.73676
LeftShoulder1  7.95796 -13.6685 -40.0892
LeftArm  -9.98738 18.511 -28.7329
LeftForeArm  35.443 -27.6066 -4.04723
LeftHand  -0.25398 0.0180481 5.50724
RightShoulder  3.05382 6.93546 23.0361
RightArm  -1.48912 30.9697 56.6422
RightForeArm  166.788 56.3715 164.712
RightHand  -5.12433 13.5731 -31.0708
LeftUpLeg  1.82795 4.59899 1.10565
LeftLeg  4.90755 11.405 -3.07265
LeftFoot  -1.87408 -0.242909 3.06971
LeftToes  1.06247e-005 4.65855e-005 -8.18501e-006
170
root  -37.6039 41.2581 -1.55954 -40.3464 -87.6245 37.1877
RightUpLeg  1.56201 -10.1277 -8.11028
RightLeg  8.66026 -4.85921 2.09089
RightFoot  -4.80302 -0.0506084 0.330296
RightToes  0.00048216 0.542163 -0.142577
Spine  6.32007 1.60667 2.81086
Spine1  16.2663 4.05405 -6.23645
HEad  -11.4468 -13.5574 5.2849
LeftShoulder1  7.99516 -13.5756 -40.533
LeftArm  -9.78088 17.9785 -28.4859
LeftForeArm  35.8845 -29.1815 -4.37093
LeftHand  -0.25398 0.0180481 5.50724
RightShoulder  3.36077 7.43998 24.5723
RightArm  -0.937402 26.2461 56.4642
RightForeArm  167.288 56.7316 164.554
RightHand  -5.50015 14.6601 -31.5148
LeftUpLeg  0.193867 4.23644 0.913331
LeftLeg  4.51774 11.1335 -3.17164
LeftFoot  -1.10185 -0.285179 3.25691
LeftToes  1.06247e-005 4.65855e-005 -8.18501e-006
171
root  -37.3443 41.2768 -1.53904 -30.8141 -87.0591 29.0399
RightUpLeg  -0.127002 -10.018 -7.91065
RightLeg  8.36203 -5.85046 2.23975
RightFoot  -4.2158 -0.0489406 0.322626
RightToes  0.00048216 0.542163 -0.142577
Spine  7.70907 1.49774 3.0895
Spine1  16.2621 3.92082 -6.02778
HEad  -8.37502 -13.7175 4.46636
LeftShoulder1  8.03418 -13.4818 -40.9924
LeftArm  -9.72488 17.4577 -28.3273
LeftForeArm  36.6414 -31.0506 -4.75567
LeftHand  -0.25398 0.0180481 5.50724
RightShoulder  3.65843 7.91349 25.9673
RightArm  -1.07648 21.471 55.7775
RightForeArm  167.872 57.2875 164.29
RightHand  -6.08557 16.5248 -31.8665
LeftUpLeg  -1.6039 3.78989 0.662031
LeftLeg  3.9851 10.9815 -3.26085
LeftFoot  -0.193247 -0.3352 3.44589
LeftToes  1.06247e-005 4.65855e-005 -8.18501e-006
172
root  -37.0644 41.2901 -1.51837 -23.1829 -86.4103 22.927
RightUpLeg  -1.99499 -9.83342 -7.65868
RightLeg  8.06491 -6.99654 2.34781
RightFoot  -3.58643 -0.0475457 0.342724
RightToes  0.00048216 0.542163 -0.142577
Spine  9.2396 1.41453 3.57839
Spine1  16.3742 3.89466 -5.95777
HEad  -6.7253 -14.1168 3.99392
LeftShoulder1  8.04486 -13.3838 -41.3091
LeftArm  -9.95217 16.7724 -28.4038
LeftForeArm  37.546 -33.0072 -5.16858
LeftHand  -0.25398 0.0180481 5.50724
RightShoulder  3.91788 8.30748 27.1373
RightArm  -1.34875 16.998 55.049
RightForeArm  166.404 57.8912 163.814
RightHand  -6.40189 17.1727 -32.5183
LeftUpLeg  -3.57092 3.39165 0.453616
LeftLeg  3.41407 10.7322 -3.3941
LeftFoot  0.797985 -0.400341 3.71769
LeftToes  1.06247e-005 4.65855e-005 -8.18501e-006
173
root  -36.7719 41.2978 -1.5032 -16.5025 -85.6958 17.7605
RightUpLeg  -3.84186 -9.68892 -7.3958
RightLeg  7.72788 -8.1552 2.50858
RightFoot  -2.92596 -0.0448089 0.342547
RightToes  0.00048216 0.542163 -0.142577
Spine  10.86 1.27492 4.28774
Spine1  16.7392 3.91689 -6.07473
HEad  -6.49675 -14.5768 3.89881
LeftShoulder1  8.04864 -13.3249 -41.4862
LeftArm  -10.2161 15.9329 -28.6048
LeftForeArm  38.2656 -34.823 -5.57552
LeftHand  -0.25398 0.0180481 5.50724
RightShoulder  4.12977 8.64765 27.9787
RightArm  -1.63295 13.3124 54.567
RightForeArm  163.294 59.0084 162.853
RightHand  -6.33892 16.3117 -33.4126
LeftUpLeg  -5.5555 3.07576 0.334255
LeftLeg  2.83619 10.3128 -3.56762
LeftFoot  1.85325 -0.489452 4.132
LeftToes  1.06247e-005 4.65855e-005 -8.18501e-006
174
root  -36.4677 41.3006 -1.49265 -11.5514 -85.0469 14.1523
RightUpLeg  -5.52589 -9.62321 -7.17952
RightLeg  7.38343 -9.13086 2.72849
RightFoot  -2.24314 -0.0398199 0.311144
RightToes  0.00048216 0.542163 -0.142577
Spine  12.8042 1.12206 5.03551
Spine1  17.0163 3.97578 -6.2403
HEad  -6.92394 -14.9482 4.05693
LeftShoulder1  8.08969 -13.3521 -41.6416
LeftArm  -10.2401 15.172 -28.7458
LeftForeArm  38.6796 -36.4616 -5.9721
LeftHand  -0.25398 0.0180481 5.50724
RightShoulder  4.26814 8.92023 28.3567
RightArm  -2.29847 10.6025 54.1551
RightForeArm  159.957 61.0599 161.143
RightHand  -6.40773 15.8636 -34.4061
LeftUpLeg  -7.34048 2.82952 0.266579
LeftLeg  2.2189 9.88838 -3.75295
LeftFoot  2.95431 -0.595404 4.60249
LeftToes  1.06247e-005 4.65855e-005 -8.18501e-006
175
root  -36.1559 41.296 -1.48237 -8.05029 -84.5236 11.7614
RightUpLeg  -7.01783 -9.59929 -7.01245
RightLeg  7.09023 -9.90866 2.9487
RightFoot  -1.57405 -0.0332719 0.263404
RightToes  0.00048216 0.542163 -0.142577
Spine  15.1821 1.00985 5.79109
Spine1  16.9439 4.13366 -6.46021
HEad  -7.44479 -15.2821 4.35567
LeftShoulder1  8.15785 -13.443 -41.777
LeftArm  -9.96688 14.553 -28.8061
LeftForeArm  38.8953 -37.8718 -6.33502
LeftHand  -0.25398 0.0180481 5.50724
RightShoulder  4.3354 9.09266 28.4213
RightArm  -3.45082 8.84753 53.4313
RightForeArm  155.894 63.963 158.388
RightHand  -6.81966 16.5595 -35.3802
LeftUpLeg  -8.86382 2.63481 0.226596
LeftLeg  1.60868 9.56528 -3.93289
LeftFoot  4.00275 -0.69123 4.94873
LeftToes  1.06247e-005 4.65855e-005 -8.18501e-006
176
root  -35.8565 41.2839 -1.47222 -5.02921 -84.0047 9.69974
RightUpLeg  -8.33887 -9.59919 -6.86705
RightLeg  6.83053 -10.6263 3.16489
RightFoot  -0.960359 -0.0245969 0.198757
RightToes  0.00048216 0.542163 -0.142577
Spine  17.6444 0.900263 6.63649
Spine1  16.7481 4.38823 -6.81238
HEad  -8.09519 -15.7126 4.77629
LeftShoulder1  8.21922 -13.5433 -41.8485
LeftArm  -9.53631 13.8924 -28.8552
LeftForeArm  39.0361 -38.8359 -6.59179
LeftHand  -0.25398 0.0180481 5.50724
RightShoulder  4.38471 9.21738 28.4724
RightArm  -4.80907 8.14329 52.2789
RightForeArm  149.836 67.5828 153.914
RightHand  -7.29483 17.4322 -36.3179
LeftUpLeg  -10.209 2.46763 0.214583
LeftLeg  1.0341 9.23869 -4.09546
LeftFoot  4.93699 -0.762525 5.11881
LeftToes  1.06247e-005 4.65855e-005 -8.18501e-006
177
root  -35.5875 41.2691 -1.46551 -2.03204 -83.4221 7.63742
RightUpLeg  -9.55187 -9.61721 -6.71071
RightLeg  6.54252 -11.3469 3.40109
RightFoot  -0.399925 -0.0136261 0.113815
RightToes  0.00048216 0.542163 -0.142577
Spine  19.7899 0.782 7.49032
Spine1  16.6976 4.65182 -7.13883
HEad  -8.9728 -16.2438 5.28194
LeftShoulder1  8.29679 -13.6534 -41.9814
LeftArm  -9.13921 13.138 -28.8879
LeftForeArm  39.1158 -39.2252 -6.69656
LeftHand  -0.25398 0.0180481 5.50724
RightShoulder  4.44705 9.38941 28.4967
RightArm  -6.17371 8.62983 50.9149
RightForeArm  140.613 71.9023 146.021
RightHand  -7.77479 18.2014 -37.348
LeftUpLeg  -11.4743 2.30017 0.229877
LeftLeg  0.447058 8.84209 -4.22719
LeftFoot  5.81485 -0.827618 5.24787
LeftToes  1.06247e-005 4.65855e-005 -8.18501e-006
178
root  -35.3457 41.2537 -1.46226 0.860291 -82.8716 5.68597
RightUpLeg  -10.7147 -9.60172 -6.50564
RightLeg  6.20179 -12.0486 3.61805
RightFoot  0.139281 -0.00221437 0.031388
RightToes  0.00048216 0.542163 -0.142577
Spine  21.6422 0.715925 8.23013
Spine1  16.7114 4.89976 -7.25944
HEad  -9.93582 -16.7966 5.80053
LeftShoulder1  8.42902 -13.8023 -42.3049
LeftArm  -8.85185 12.4565 -28.8721
LeftForeArm  39.0426 -39.1954 -6.69262
LeftHand  -0.25398 0.0180481 5.50724
RightShoulder  4.4936 9.60469 28.2794
RightArm  -7.5071 10.2811 49.5329
RightForeArm  124.283 76.4764 130.334
RightHand  -8.49337 19.4962 -38.5536
LeftUpLeg  -12.7117 2.15008 0.278498
LeftLeg  -0.119724 8.45522 -4.32709
LeftFoot  6.67835 -0.906597 5.45631
LeftToes  1.06247e-005 4.65855e-005 -8.18501e-006
